<svg width="112" height="46" viewBox="0 0 112 46" fill="none" xmlns="http://www.w3.org/2000/svg">
<rect width="112" height="46" fill="#FED100"/>
<rect width="112" height="23" transform="translate(0 12)" fill="#FED100"/>
<path d="M20.11 34L20.08 20.08L13.18 31.6H11.44L4.54001 20.26V34H0.820007V13H4.03001L12.37 26.92L20.56 13H23.77L23.8 34H20.11ZM39.2823 34.3C37.1423 34.3 35.2123 33.84 33.4923 32.92C31.7723 31.98 30.4223 30.69 29.4423 29.05C28.4623 27.39 27.9723 25.54 27.9723 23.5C27.9723 21.46 28.4623 19.62 29.4423 17.98C30.4223 16.32 31.7723 15.03 33.4923 14.11C35.2123 13.17 37.1423 12.7 39.2823 12.7C41.4223 12.7 43.3523 13.17 45.0723 14.11C46.7923 15.03 48.1423 16.31 49.1223 17.95C50.1023 19.59 50.5923 21.44 50.5923 23.5C50.5923 25.56 50.1023 27.41 49.1223 29.05C48.1423 30.69 46.7923 31.98 45.0723 32.92C43.3523 33.84 41.4223 34.3 39.2823 34.3ZM39.2823 30.88C40.6823 30.88 41.9423 30.57 43.0623 29.95C44.1823 29.31 45.0623 28.43 45.7023 27.31C46.3423 26.17 46.6623 24.9 46.6623 23.5C46.6623 22.1 46.3423 20.84 45.7023 19.72C45.0623 18.58 44.1823 17.7 43.0623 17.08C41.9423 16.44 40.6823 16.12 39.2823 16.12C37.8823 16.12 36.6223 16.44 35.5023 17.08C34.3823 17.7 33.5023 18.58 32.8623 19.72C32.2223 20.84 31.9023 22.1 31.9023 23.5C31.9023 24.9 32.2223 26.17 32.8623 27.31C33.5023 28.43 34.3823 29.31 35.5023 29.95C36.6223 30.57 37.8823 30.88 39.2823 30.88ZM73.2524 13L64.1024 34H60.2624L51.0824 13H55.3124L62.3024 29.2L69.3524 13H73.2524ZM91.2184 30.73V34H75.4684V13H90.7984V16.27H79.3684V21.73H89.5084V24.94H79.3684V30.73H91.2184ZM111.316 30.73V34H95.5661V13H110.896V16.27H99.4661V21.73H109.606V24.94H99.4661V30.73H111.316Z" fill="black"/>
</svg>
